<?xml version="1.0" encoding="UTF-8"?>
<svg id="Camada_2" data-name="Camada 2" xmlns="http://www.w3.org/2000/svg" viewBox="0 0 78.47 81.4">
  <defs>
    <style>
      .cls-1 {
        fill: #fff;
      }
    </style>
  </defs>
  <g id="Camada_1-2" data-name="Camada 1">
    <path class="cls-1" d="M29.99.31C15.18,1.7-2.55,5.9.31,25.06c2.61,17.48,12.96,35.53,24.21,48.96,6.71,8.02,11.66,10.07,20.18,3.3,13.87-11.78,30.99-31.98,33.6-50.65C81.36,4.66,45.63-1.54,29.99.31ZM47.08,38.31c1.54,5.58,3.12,11.15,4.79,16.69-4.63-3.63-9.25-7.3-13.84-10.99-4.86,3.1-9.76,6.14-14.69,9.11,2.13-5.23,4.2-10.49,6.21-15.76-3.98-3.5-9.29-7.49-13.5-10.85,5.78.32,11.56.68,17.34,1.08l6.06-15.29c.84,1.01,4.16,13.75,4.76,15.88,5.61.15,11.66.74,17.39.96-5.04,2.88-9.67,5.98-14.52,9.17Z"/>
  </g>
</svg>