<?xml version="1.0" encoding="UTF-8"?>
<svg id="Camada_2" data-name="Camada 2" xmlns="http://www.w3.org/2000/svg" viewBox="0 0 1251.6 420.3">
  <defs>
    <style>
      .cls-1 {
        fill: #fff;
      }
    </style>
  </defs>
  <g id="Camada_1-2" data-name="Camada 1">
    <g>
      <g>
        <path class="cls-1" d="M242.39,188.93c-6.14.54-12.69-.35-18.89-.46-7.4.37-14.83.21-22.3.23-6.95-.92-14.21,1.36-20.94,0-1.5-.54-.27-1.74.46-2.28,4.54-3.48,4.84-10.24,7.06-15.25,4.36-27.24,3.17-55.06,3.41-82.61.66-15.3.96-31.04.23-46.43-.11-2.16-8.34-.72-10.24-.46-7.04.3-13.82,2.76-20.48,4.78-3.29.68-12.34,8.8-14.11,5.69.53-14.18,4.13-29.5,3.64-43.92.48-7.8,21.98-2.86,27.99-4.1,17.94-.72,36.2.84,53.94.46,13.14,1.1,26.26-1.31,39.37,0,4.84,1.02,2.98,7.06,3.87,10.47,1.29,11.91,2.48,23.65,4.1,35.5-1.48,3.84-7.82-3.09-10.7-2.96-5.58-2.45-28.34-8.86-33-6.15-1.21,5.04-1.23,10.8-.68,15.93-.71,7.79-.17,15.63-.46,23.44-.92,15.76-1.48,31.57-.68,47.34.22,9.3.7,18.92,2.28,27.99-.3,7.92,1.01,16.43,4.32,23.67,1.47,1.96,2.02,4.61,3.87,6.6.57,1.53-.65,2.87-2.05,2.5Z"/>
        <path class="cls-1" d="M429.24,185.29c1.36,2.51-2.14,3.06-3.64,3.41-2.18-.94-8.08-.67-10.47-.68-2.34-.16-3.82-.55-6.15,0-12.49-.71-25.4.12-38.01.23-4.98-1.71.72-6.4.91-9.56,1.24-5.06.67-10.43-.23-15.7-.46-.46-.68-.91-1.14-.91-12.99-.19-26.16-.11-39.14,0-8.96,1.72-8.27-2.5-9.56,5.69-.59,5.85-.65,12.32,2.5,17.52.78.56,1.62,1.16,1.37,2.28-14.25,2.05-29.22.26-43.7.68-2.52.18-9.2-.1-11.83,0-.78-.03-1.76-.75-1.82-1.59q-.23-.23-.23-.46c6.23-5.35,9.74-14.21,11.15-22.53,2.9-9.52,4.86-20.04,7.28-30.04,4.97-15.98,7.2-32.83,11.38-48.93,2.3-14.99,6.55-29.57,8.65-44.61,1.63-6.98,2.38-15.71,2.28-22.99.26-4.42-2.14-8.58-2.51-12.06,12.98-1.81,26.94.1,40.28-.68,10.73.54,22.38-1.03,32.77.23,8.66.23,15.52-3.12,8.88,8.42-3,13.17.97,26.24,3.64,38.92,4.06,16.91,7.46,34.37,11.15,51.43,3.8,15.42,7.25,30.67,11.38,45.97,2.39,8.23,3.05,17.3,7.28,25.03,1.62,4.21,3.84,8.11,7.51,10.92ZM329.1,123.61c0,.23.68.68.91.91,7.49.01,22.95,0,30.5,0,2.54-.03,5.19.3,4.55-3.19-4.2-17.81-7.01-36.09-10.24-53.94-.78-8.17-2.35-15.92-3.64-24.12-.57-1.71-1.9-3.11-3.87-2.73-.89.77-1.38,1.71-1.37,2.96-.74,4.04-2.09,7.89-3.19,11.61-.59,5.36-1.23,10.77-2.73,15.93-.63,2.96-1.98,6.32-1.82,9.33-.67,6.19-4.24,11.2-4.1,17.52-.77,4.76-2.78,9.18-2.96,14.11-.08,3.86-2.78,7.67-2.05,11.61Z"/>
        <path class="cls-1" d="M436.3,188.25l.46-.68c14.05-9.11,9.62-29.67,10.7-44.15-.59-21.14-.78-42.29-.23-63.27-.37-22.04,1.66-44.63-1.59-66.45-.92-6.92-8.99-8.85-4.55-10.7,10.3,1.99,20.92,1.48,31.41,1.36,5.25-.83,10.41.84,15.7-.46,0,0,2.73,0,2.73,0,3.34.55,6.79-.87,10.01,0,.23.23.68.91.46,1.37-.23,0-.23.23-.23.46-12.46,14.54-7.59,40.8-9.1,58.94-.6,28.62-.43,57.45-.23,86.03-1.02,5.91,20.85.82,24.81,1.59,11.8-1.02,26.57-1.09,34.59-11.38,1.8-2.59,3.34-.79,2.96,1.82-1.82,5.89-2.26,12.12-3.41,18.21-1.79,7.02-2.74,13.89-3.87,20.94-1.02,2.37-1.26,14.69-4.32,12.75-12.13-7.91-29.04-5.24-43.01-6.15-15.63-.02-31.57.2-47.11,1.14,0,0-10.01,0-10.01,0-1.95-.34-5.26,1.01-6.14-1.37Z"/>
        <path class="cls-1" d="M563.29,188.25l.46-.68c14.05-9.11,9.62-29.67,10.7-44.15-.59-21.14-.78-42.29-.23-63.27-.37-22.04,1.66-44.63-1.59-66.45-.92-6.92-8.99-8.85-4.55-10.7,10.3,1.99,20.92,1.48,31.41,1.36,5.25-.83,10.41.84,15.7-.46,0,0,2.73,0,2.73,0,3.34.55,6.79-.87,10.01,0,.23.23.68.91.46,1.37-.23,0-.23.23-.23.46-12.46,14.54-7.59,40.8-9.1,58.94-.6,28.62-.43,57.45-.23,86.03-1.02,5.91,20.85.82,24.81,1.59,11.8-1.02,26.57-1.09,34.59-11.38,1.8-2.59,3.34-.79,2.96,1.82-1.82,5.89-2.26,12.12-3.41,18.21-1.79,7.02-2.74,13.89-3.87,20.94-1.02,2.37-1.26,14.69-4.32,12.75-12.13-7.91-29.04-5.24-43.01-6.15-15.63-.02-31.57.2-47.11,1.14,0,0-10.01,0-10.01,0-1.95-.34-5.26,1.01-6.14-1.37Z"/>
        <path class="cls-1" d="M816.6,143.87c-2.57,13.68-6.56,27.07-9.1,40.74-1.65,10.25-3,6.69-10.92,5.69-8.12-1.56-16.34-1.68-24.58-1.82-23.43-.12-46.63-.86-70.1-.23-2.23-.34-8.78.74-10.7-.68-1.1-.57-1.09-2.04,0-2.73,3.93-3.11,6.88-7.71,7.51-12.74,1.84-7.91,1.17-16.01,1.36-24.12.69-13.65,1.39-28.71,1.37-42.79-.45-28.31,2.24-57.04,0-85.12-1.13-4.45-2.51-9.71-7.05-11.83-2.96-1.3-.27-4.93,2.28-3.87,16.48.65,33.21,0,49.61.23,18.82-.38,38.13,1.48,56.21-4.32,5.17-.59,3.93,16.69,5.24,20.71.81,7.2,1.74,14.08,2.96,21.17.69,2.93,1.06,5.91,1.59,8.88-1.15,3.35-3.08.28-4.55-.68-3.14-2.61-6.97-4.57-10.92-5.69-13.07-3.32-26.86-2.57-40.28-2.96-2.54-.18-12.04-.73-13.43,1.14-.83,5.99-.06,14.29-.23,22.99-.29,3.31-.2,8.72-.23,12.06.15,1.26,1.91,1.64,2.96,1.59,11.93.16,23.94,1.09,35.73-1.59,3.23.58,12.79-7.29,12.74-3.19.23,11.46.2,23.33-.45,34.82-.41,3.3,2.27,7.92-1.37,9.56-1.3.45-2.22-.56-2.96-1.37-13.92-7.18-30.6-4.55-45.74-4.78-2.93,4.8.29,11.8-1.37,17.3.49,6.8-1.03,13.87,0,20.48.88,2.44,13.1.9,15.93,1.37,2.9.44,6.6.88,9.56.68,8.65-1.52,17.88.02,26.4-2.5,4.58-1.37,9.01-2.47,13.2-4.55,3.38-1.22,6.9-7.65,9.33-1.82Z"/>
        <path class="cls-1" d="M821.38,168.22c0-2.48,3.24-5.1,4.55-7.51,4.45-8.08,7.75-15.24,14.11-22.08,2.47-3.09,8.04-16.05,12.52-13.43,3.77,6.01,6.78,12.46,11.61,18.21,5.59,4.44,8.7,8.75,16.39,10.7,10.09,4.28,24.98.87,28.45-10.7,2.68-12.48-8.67-18.98-17.07-25.49-4.61-2.15-8.17-5.1-12.29-7.51-11.11-7.59-20.75-15.67-30.5-25.26-7.99-6.63-12.28-15.68-15.48-25.26-1.8-8.83.36-17.22,2.5-25.72,11.44-28.36,38.27-36.37,68.28-33.68,12.54,2.49,24.93,10.1,37.32,13.2,9.95,2.03,14.03-.73,5.92,10.47-.49,2.25-2.01,3.19-2.5,5.46-3.62,5.77-6.15,12.64-9.79,18.89-1.38,2.31-3.73,15.76-7.97,12.29-2.47-10.47-11.77-19.98-22.08-23.21-15.24-4.2-38.56,3.89-23.21,21.85,10.27,8.97,21.68,15.03,32.77,22.53,14.54,11.19,30.97,22.81,36.41,41.42,2.09,6.76,3.84,13.56,2.27,19.8-.45,5.78-1.69,10.27-4.55,15.25-3.43,10.02-11.71,16.64-19.57,22.99-12.61,6.99-27.08,11.82-41.42,10.93-5.18-.59-11.55-.26-16.61-2.5-4.5-1.12-8.97-1.48-12.97-4.32-13.25-3.99-22.69-15.39-36.64-16.61,0-.23-.23-.46-.46-.68Z"/>
      </g>
      <g>
        <path class="cls-1" d="M.19,306.2c-.31-2.9-.18-6.13,0-9.19,3.97-35.81,18.62-76.87,53.85-92.2,13.18-5.2,28.8-6.06,42.82-3.94,12.85,1.29,24.7,10.07,37.56,8.41.79.26,1.31,1.05,1.05,1.58-2.31,5.47-4.01,10.87-6.57,16.02-5.75,11.26-9.82,23.85-15.24,34.94,0,.26-1.05.79-1.31.53-1.31,0-3.15,1.05-3.68,0-.77-2.44-1.52-4.94-2.36-7.35-6.39-11.4-23.38-16.47-33.89-7.88-17.4,9.95-24.49,46.63-23.12,65.41.56,12.41,5.21,24.33,9.72,35.72,3.38,8.51,12.21,18.23,21.01,21.28,9.51,3.82,20.91.18,26.01-8.93,1.58-3.23,2.54-8.86,4.99-11.56,3.36-.68,11.24,15.62,13.13,18.65,1.58,4.77,22.38,27.9,17.07,29.16-.36.49-3.59.18-4.2.26-2.04.47-3.88,1.21-5.78,1.58-7.63,3.52-13.97,9.39-21.54,12.87-12.74,9.42-33.76,10.11-47.02,7.36-8.74-1.27-16.1-8.29-23.9-11.56-.26,0-.26-.26-.53-.26C10.57,380.6,1.03,343.21.19,306.2Z"/>
        <path class="cls-1" d="M325.65,412.84c1.57,2.9-2.47,3.53-4.2,3.94-2.51-1.08-9.33-.77-12.08-.79-2.7-.18-4.41-.63-7.09,0-14.42-.82-29.31.13-43.87.26-5.75-1.98.83-7.39,1.05-11.03,1.44-5.84.77-12.04-.26-18.13-1.26-2.28-10.63-.35-13.4-1.31-12.29.6-24.87-.63-37.04.79-8.42.23-5.46-1.13-7.36,8.14-.08,6.67-.47,14.74,4.73,19.7,0,0,0,1.05,0,1.05-16.45,2.36-33.72.3-50.43.79-2.91.2-10.62-.12-13.66,0-.9-.03-2.03-.87-2.1-1.84q-.26-.26-.26-.53c.46-1.66,2.05-1.41,3.15-2.89,5.07-6.46,8.35-14.9,9.72-23.12,3.36-11.01,5.61-23.12,8.4-34.67,5.74-18.43,8.31-37.9,13.13-56.48,2.65-17.29,7.56-34.13,9.98-51.49,2.13-9.36,3.06-20.51,2.36-30.21.35-3.95-5.07-10.11-1.32-11.03,22.02.2,43.97.04,65.93,0,9-1.1,17.5.71,26.53,0,7.66-.53,2,6.55.79,9.98-3.46,15.19,1.12,30.29,4.2,44.92,4.68,19.51,8.61,39.67,12.87,59.37,4.39,17.8,8.37,35.4,13.13,53.06,2.76,9.5,3.52,19.97,8.41,28.89,1.96,3.54,3.07,8.78,7.09,11.03.79.26,1.31.79,1.58,1.58ZM210.07,341.66c0,.26.79.79,1.05,1.05,8.64.01,26.49-.01,35.2,0,3.01-.08,5.93.46,5.25-3.68-4.85-20.54-8.09-41.67-11.82-62.26-.91-9.46-2.71-18.37-4.2-27.84-.66-1.98-2.19-3.59-4.47-3.15-1.03.89-1.6,1.97-1.58,3.42-.85,4.66-2.41,9.1-3.68,13.4-.68,6.19-1.42,12.43-3.15,18.39-.73,3.42-2.28,7.3-2.1,10.77-.77,7.15-4.89,12.92-4.73,20.23-.89,5.5-3.21,10.6-3.41,16.29-.1,4.45-3.21,8.84-2.36,13.4Z"/>
        <path class="cls-1" d="M423.37,417.05c-7.09.63-14.65-.41-21.8-.53-8.54.43-17.12.24-25.74.26-8.02-1.06-16.41,1.57-24.17,0-1.84-.65-.3-2,.53-2.63,5.24-4.02,5.59-11.82,8.14-17.6,5.03-31.44,3.66-63.55,3.94-95.35.76-17.66,1.1-35.83.26-53.59.09-2.44-9.77-.86-11.82-.53-8.13.35-15.95,3.19-23.64,5.52-3.65.75-14.5,10.21-16.29,6.57,0,0,0-5.52,0-5.52,2.32-14.74,4.21-30.17,4.2-45.18.32-8.92,25.51-3.35,32.31-4.73,13.31-.39,27.12.15,40.45,0,7.36,1.14,14.53.74,21.8.53,12.99,1.13,25.87-.77,38.88-.53,3.32.72,7.14-.24,9.72,2.36,1.62,8.22,1.79,16.66,2.89,24.95.93,5.95.71,11.21,2.1,17.07-.63,2.48,3.32,11.16-1.05,10.51-9.15-4.7-19.53-8.64-29.95-10.51-3.35-.42-16.77-3.68-18.39-1.31-1.4,5.81-1.41,12.46-.79,18.39-.82,8.99-.19,18.04-.53,27.06-1.06,18.19-1.71,36.44-.79,54.64.57,6.66-.05,13.81,1.05,20.49.98,2.62.38,5.22.79,7.88-.1,1.44,1.34,2.35.79,3.94-.35,9.15,1.17,18.96,4.99,27.32,1.7,2.27,2.33,5.32,4.47,7.62.66,1.77-.75,3.31-2.36,2.89Z"/>
        <path class="cls-1" d="M579.4,417.05c-7.09.63-14.65-.41-21.8-.53-8.54.43-17.11.24-25.74.26-8.02-1.06-16.41,1.57-24.17,0-1.84-.65-.3-2,.53-2.63,5.24-4.02,5.59-11.82,8.14-17.6,5.03-31.44,3.66-63.55,3.94-95.35.76-17.66,1.1-35.83.26-53.59.09-2.44-9.77-.86-11.82-.53-8.13.35-15.95,3.19-23.64,5.52-3.65.75-14.5,10.21-16.29,6.57,0,0,0-5.52,0-5.52,2.32-14.74,4.21-30.17,4.2-45.18.32-8.92,25.51-3.35,32.31-4.73,13.31-.39,27.12.15,40.45,0,7.36,1.14,14.53.74,21.8.53,12.98,1.13,25.87-.77,38.88-.53,3.32.72,7.14-.24,9.72,2.36,1.62,8.22,1.79,16.66,2.89,24.95.93,5.95.71,11.21,2.1,17.07-.63,2.48,3.32,11.16-1.05,10.51-9.15-4.7-19.53-8.64-29.95-10.51-3.35-.42-16.77-3.68-18.39-1.31-1.4,5.81-1.41,12.46-.79,18.39-.82,8.99-.19,18.04-.53,27.06-1.06,18.19-1.71,36.44-.79,54.64.57,6.66-.05,13.81,1.05,20.49.98,2.62.38,5.22.79,7.88-.1,1.44,1.34,2.35.79,3.94-.35,9.15,1.17,18.96,4.99,27.32,1.7,2.27,2.33,5.32,4.47,7.62.65,1.77-.75,3.31-2.36,2.89Z"/>
        <path class="cls-1" d="M795.06,412.84c1.57,2.9-2.47,3.53-4.2,3.94-2.51-1.08-9.33-.77-12.08-.79-2.7-.18-4.41-.63-7.09,0-14.42-.82-29.31.13-43.87.26-5.75-1.98.83-7.39,1.05-11.03,1.44-5.84.77-12.04-.26-18.13-1.26-2.28-10.63-.35-13.4-1.31-12.29.6-24.87-.63-37.04.79-8.42.23-5.46-1.13-7.36,8.14-.08,6.67-.47,14.75,4.73,19.7,0,0,0,1.05,0,1.05-16.45,2.36-33.72.3-50.43.79-2.91.2-10.62-.12-13.66,0-.9-.03-2.03-.87-2.1-1.84q-.26-.26-.26-.53c.46-1.66,2.05-1.41,3.15-2.89,5.07-6.46,8.35-14.9,9.72-23.12,3.36-11.01,5.61-23.12,8.4-34.67,5.74-18.43,8.31-37.9,13.13-56.48,2.65-17.29,7.56-34.13,9.98-51.49,2.13-9.36,3.06-20.51,2.36-30.21.35-3.95-5.07-10.11-1.32-11.03,22.02.2,43.97.04,65.93,0,9-1.1,17.5.71,26.53,0,7.66-.53,2,6.55.79,9.98-3.46,15.19,1.12,30.29,4.2,44.92,4.68,19.51,8.61,39.67,12.87,59.37,4.39,17.8,8.37,35.4,13.13,53.06,2.76,9.5,3.52,19.97,8.41,28.89,1.96,3.54,3.07,8.78,7.09,11.03.79.26,1.31.79,1.58,1.58ZM679.48,341.66c0,.26.79.79,1.05,1.05,8.64.01,26.49-.01,35.2,0,3.01-.08,5.93.46,5.25-3.68-4.85-20.54-8.09-41.67-11.82-62.26-.91-9.46-2.71-18.37-4.2-27.84-.66-1.98-2.19-3.59-4.46-3.15-1.03.89-1.6,1.97-1.58,3.42-.85,4.66-2.41,9.1-3.68,13.4-.68,6.19-1.42,12.43-3.15,18.39-.73,3.42-2.28,7.3-2.1,10.77-.77,7.15-4.89,12.92-4.73,20.23-.89,5.5-3.21,10.6-3.41,16.29-.1,4.45-3.21,8.84-2.36,13.4Z"/>
        <path class="cls-1" d="M803.47,414.42c-.26-.53-.26-1.31,0-1.58,0-.26.26-.26.26-.53,16.4-10.8,8.96-84.34,10.77-105.86-.65-15.11,1.84-30.34,0-45.44-.31-4.28.5-12.61.26-16.81-.02-6.8-1.12-13.18-1.58-19.96-1.27-4.98-2.02-10.85-5.52-14.97-1.98-1.24-4.42-4.16-1.31-5.78,18.92-.17,38.03.75,57,.79,16.93.4,34.16-.95,50.96.79,8.55.67,16.3,3.64,22.85,9.46,3.93,3.09,8.55,5.36,10.77,9.98,9.79,12.17,12.2,28.84,13.66,43.87-1.19,30.16-9.4,54.53-39.14,66.98-5.2,3.63-3.43-.39.26,7.88,4.73,5.71,7.94,13.17,11.82,18.65,2.5,4.85,7.09,10.71,9.46,15.76,7.24,12.61,14.59,25.99,25.22,35.99,1.84,1.68-1.06,3.63-2.89,3.15-13.18-1.2-26.9-.75-40.19-1.58,0,0-11.56,0-11.56,0-3.1-.27-10.31,2.73-11.56-1.05,2.02-18.01-9.32-34.12-16.28-49.91-3.83-7.29-7.02-15.22-11.56-22.33-1.79-.78-5.12.12-7.09-.53-1.05-.26.52-.26-.53-.26-6.26-.77-4.88,3.81-4.47,8.14.32,5.63.57,8.88.79,14.45.73,2.78.5,6.59.53,9.46,0,1.31.79,2.89.53,4.2.58,13.28.73,27.66,10.24,37.83.41.92-.6,1.52-1.58,1.31-14.79-2.28-30.53-.54-45.44-1.05-7.13-.26-13.88.73-21.01,1.05-1.15.26-2.76-1.56-3.68-2.1ZM888.31,244.99c-7.76-1.07-16.53-1.25-23.9-.79-2.96,1.25-.6,15.63-1.05,19.44.53,12.13-.47,24.99-.52,37.04.4,2.31,3.31,2.1,4.99,2.1,14.11-1.12,30.5-.87,39.14-14.19,7.13-15.51,1.42-41.49-18.65-43.6Z"/>
        <path class="cls-1" d="M992.07,416.26c-2.05,0-5.74,0-7.62-.26-1.13-.11-2.73.65-3.68,0-.94-.88-.18-1.77.53-2.36,7.99-8.91,9.05-21.29,8.93-32.84,1.63-15.59.87-30.54,1.58-46.23-.46-3.91-.89-8.42-.26-12.35,1.02-3.47-.48-6.45.53-9.72-.17-19.67.78-39.84.52-59.37.93-3.37.07-7.24,0-10.77.61-9.58-.1-19.37-2.89-28.63-.65-3.23-3.1-5.74-5.52-8.14-.63-.87-.09-1.31.53-1.84,10.1.52,21-.31,31,.53,3.77-.27,11.03-.86,15.76-.26,3.89.66,8.36-1.07,12.35,0,2.09,0,3.46.18,6.04,0,.56-.3,2,.95,1.31,1.84-1.41,1.82-3.17,3.28-3.94,5.52-2,3.59-3.59,8.14-4.47,12.08-3.07,20.74-.68,36.29-1.84,59.1.69,19.81-1.72,39.47,0,59.37.67,16.8-1.8,59.36,10.24,70.4,5.34,7.29-15.79,2.97-19.18,3.94-13.3.16-26.64-.43-39.93,0Z"/>
        <path class="cls-1" d="M1134.44,291.22c.78,7.63.02,20.81,0,29.42,1.36,8.73-.06,17.61.53,26.27.11,18.31-.31,38.14,4.73,55.69,1.52,3.37,2.88,6.73,5.52,9.46,1.8,1.46,2.94,4.9-.53,4.47-15.35-.02-32.28-.49-47.54-.26-7.76-.19-15.88.92-23.38-.79-.18-1.63,2.76-2.39,3.94-4.47,1.46-1.04,1.99-2.99,3.42-4.2,6.01-12.43,4.8-26.8,5.25-40.45-.14-11.84-.24-24.22.79-35.99-.2-10.26-.6-20.49.53-30.73-.62-14.15-.63-28.76-1.05-42.82-.33-16.68,2.65-35.99-8.41-49.91-1.03-2.14.6-2.76,2.36-3.41,5.51,1.17,12.02.08,17.34,1.05.85.19,2.81-.11,3.68,0,5.88.21,13.82-1.07,19.44.26,4.91-1.19,9.54.31,14.45-.26,3.2-.34,10.51-.8,12.08,0,.7.52-.23,1.91-.26,2.36-6.31,8.7,1.91,25.01,6.57,33.1,1.97,6.59,5.68,13.64,8.67,19.7,9.98,23.93,20.12,45.09,31.26,68.82.87-8.78-.78-18.82-.53-27.58-.7-10.52-.08-22.3-.26-32.83,1.05-4.33-.05-7.73.26-12.08,1.08-3.92-.39-6.67-.26-10.51-.47-13.76,1.34-29.64-9.46-39.66-.3-1.32.6-2.42,1.84-2.1,8.1.76,16.3.25,24.43.53,13.68-.66,21.25-.06,33.36-.26,2.41.28,8.05-2.81,8.41,1.31-.26.26-.26.53-.26.53-1.05.79-1.84.79-2.36,2.1-1.33,4.21-4.67,10.74-4.99,14.97-1.49,14.95-1.89,29.92-2.1,44.92-1.87,13.35-.29,28.35-.79,41.77-.61,4.39.11,8.68,0,13.13,0,0-.26,2.63-.26,2.63-1.2,3.43.53,6.43.26,9.98-.45,15.42.19,31.59,0,47.02,0,10.29.29,21.46,0,31.78.62,3.09-2.79,1.77-4.73,2.1-3.92-.2-8,.01-11.82,0-1.8-.66-11.67-.48-16.02,0-3.15.26-3.15,0-1.05,0-2.89,0-4.46-.53-7.09-.53-2.02.1-5.49,1.05-7.36.79-2.27-2.5-14.91-30.98-16.55-34.67-8.02-16.23-15.18-32.13-22.06-48.6-5.96-12.34-12-24.68-17.34-37.3-.79-2.1-1.31-3.94-1.84-4.99l-.79.26Z"/>
      </g>
      <path class="cls-1" d="M1011.44,107.15c-14.81,1.4-32.54,5.59-29.68,24.76,2.61,17.48,12.96,35.53,24.21,48.96,6.71,8.02,11.66,10.07,20.18,3.3,13.87-11.78,30.99-31.98,33.6-50.65,3.07-22.02-32.65-28.21-48.3-26.37ZM1028.54,145.15c1.54,5.58,3.12,11.15,4.79,16.69-4.63-3.63-9.25-7.3-13.84-10.99-4.86,3.1-9.76,6.14-14.69,9.11,2.13-5.23,4.2-10.49,6.21-15.76-3.98-3.5-9.29-7.49-13.5-10.85,5.78.32,11.56.68,17.34,1.08l6.06-15.29c.84,1.01,4.16,13.75,4.76,15.88,5.61.15,11.66.74,17.39.96-5.04,2.88-9.67,5.98-14.52,9.17Z"/>
    </g>
  </g>
</svg>